<svg viewBox="0 0 512 512" version="1.1" xmlns="http://www.w3.org/2000/svg" xmlns:xlink="http://www.w3.org/1999/xlink">
  <g id="Page-1" stroke="none" stroke-width="1" fill="none" fill-rule="evenodd">
    <g id="close" fill="#FFFFFF" fill-rule="nonzero">
      <path d="M256,0 C114.844,0 0,114.844 0,256 C0,397.156 114.844,512 256,512 C397.156,512 512,397.156 512,256 C512,114.844 397.156,0 256,0 Z M359.54,329.374 C363.707,333.539 363.707,340.293 359.54,344.459 L344.46,359.54 C340.293,363.705 333.541,363.705 329.374,359.54 L256,286.167 L182.626,359.541 C178.459,363.706 171.707,363.706 167.54,359.541 L152.459,344.459 C148.292,340.294 148.292,333.54 152.459,329.374 L225.833,255.999 L152.459,182.625 C148.292,178.46 148.292,171.706 152.459,167.54 L167.54,152.458 C171.707,148.293 178.459,148.293 182.626,152.458 L256,225.832 L329.374,152.458 C333.541,148.293 340.293,148.293 344.46,152.458 L359.541,167.54 C363.708,171.705 363.708,178.459 359.541,182.625 L286.167,255.999 L359.54,329.374 Z" id="Shape"></path>
    </g>
  </g>
</svg>
